# xmcd CD database file
#
# Track frame offsets:
#	150
#	11373
#	27234
#	39821
#	61222
#
# Disc length: 990 seconds
#
# Revision: 0
# Processed by: cddbd v1.5.2PL0 Copyright (c) Steve Scherf et al.
# Submitted via: CDex 1.51
#
DISCID=2c03dc05
DTITLE=Micheal G Crossley - Mama's Hungry Eyes
DYEAR=2007
DGENRE=Country
TTITLE0=Micheal G Crossley - Busted
TTITLE1=Micheal G Crossley - it's not love but it's not bad
TTITLE2=Micheal G Crossley - Fighting Side Of Me
TTITLE3=Micheal G Crossley - Think I'll Just Stay Here And Drink
TTITLE4=Micheal G Crossley - Swingin' Doors 
EXTD=YEAR: 2007
EXTT0=
EXTT1=
EXTT2=
EXTT3=
EXTT4=
PLAYORDER=
